<svg xmlns="http://www.w3.org/2000/svg" width="270" height="112" viewBox="0 0 270 112"><path fill="#FFF" d="M0 0h270v112H0z"/><g fill="#6A6A6A"><path d="M137.66 37.248h16.785v30.41c0 4.373-3.232 7.19-7.988 7.354l1.05 4.505h.208c8.485-.27 11.507-6.188 11.507-11.17v-31.1h1.098l1.11-4.778h-24.912l1.142 4.778z"/><path d="M150.304 63.59V41.45h-13.722V70.57h7.426c2.117 0 3.67-.53 4.723-1.618 1.13-1.164 1.642-2.923 1.574-5.364zm-4.768-.43c0 1.896-.67 2.638-2.396 2.638h-1.78V46.213h4.176V63.16zM117.637 32.47v47.054h4.774V37.248h5.535l-3.46 14.775h.017l.074.06c1.482 1.268 3.982 4.18 3.982 9.478 0 5.21-3.074 7.004-4.067 7.453v4.854c2.626-.123 8.81-3.804 8.81-12.306 0-5.123-1.79-8.65-3.584-10.916l4.256-18.175h-16.335zM192.722 74.758v-5.77h16.03l-1.125-4.773h-14.904v-5.72h10.738c5.073 0 7.636-2.645 7.636-7.853V32.47h-41.502v26.025h18.362v5.72H173.05l-1.122 4.773h16.028v5.77l-17.388-.014-1.106 4.78h41.756l-1.117-4.766h-17.378zm13.6-24.332c0 2.248-.917 3.3-2.868 3.3h-10.732V47.85h11.066l-1.116-4.77h-9.95v-5.832h13.6v13.178zm-31.968 3.3V37.247h13.6v5.83h-9.96l-1.104 4.772h11.065v5.875h-13.6zM256.51 32.47h-32.843l-1.113 4.778h35.064zM258.24 73.9c-.55-2.435-2.37-10.52-2.752-11.776l-.094-.295h-4.864l.15.54c.33 1.147 2.284 9.617 2.918 12.388h-25.882c1.227-5.45 3.367-14.807 4.415-19.32h28.836l-1.117-4.766h-39.48l-1.12 4.767h7.95c-1.013 4.46-3.742 16.102-5.49 23.57l-.124.515h32.23c1.96-.007 3.348-.562 4.108-1.662.918-1.333.633-3.09.334-3.89l-.017-.072z"/></g><g fill="#6A6A6A"><path d="M47.458 76.355L26.113 71.71a4.514 4.514 0 0 1-3.5-4.213c-.01-.06-.01-22.94 0-22.998a4.518 4.518 0 0 1 3.5-4.216l21.345-4.643 2.29-9.047H24.87c-8.725 0-15.803 7.05-15.837 15.768v27.272c.034 8.717 7.112 15.775 15.837 15.775h24.878l-2.29-9.052zM65.625 76.355L86.97 71.71a4.515 4.515 0 0 0 3.498-4.213c.01-.06.01-22.94 0-22.998a4.518 4.518 0 0 0-3.497-4.216L65.626 35.64l-2.29-9.047h24.878c8.723 0 15.803 7.05 15.835 15.768v27.272c-.033 8.717-7.113 15.775-15.835 15.775H63.335l2.29-9.052z"/><path d="M47.458 54.863h18.167v2.268H47.458z"/></g></svg>